<?xml version="1.0" encoding="UTF-8"?><svg id="a" xmlns="http://www.w3.org/2000/svg" width="1080.9276" height="2038.8278" viewBox="0 0 1080.9276 2038.8278"><defs><style>.b{fill:#8e7e79;}.c{fill:#b1a49f;}.d{fill:#121212;}.e{fill:#51423d;}.f{opacity:.25;}.g{fill:none;stroke:gray;stroke-miterlimit:10;stroke-width:.5px;}</style></defs><rect class="c" y="0" width="1080.6776" height="697.5949"/><path class="b" d="m193.9353,493.1222c-4.0909.5522-6.8895-1.0146-9.4175-4.4078-2.7285-3.6623-7.1193-4.4578-11.5977-4.1788-1.4043.4243-2.8079.4373-4.211-.0059-1.1028-.2386-2.2212-.1061-3.2544-.9584-2.0324-1.6765-4.3223-1.2364-6.4356-.0761-7.7062,4.2311-15.1413,8.9178-23.9822,10.8027-3.1272.6667-4.5979,4.3176-6.3191,6.8602-3.8347,5.6645-8.635,10.6059-11.8617,16.7549-1.878,3.5787-5.3896,5.7402-9.7485,5.8363-1.9677-.4663-3.9336-.5236-5.8971.0242-.7257.0852-1.4513.1704-2.177.2556-1.9465.8154-4.1057-.2725-6.0374.6748-5.7217-.3675-11.0795.6045-15.8289,4.0835-2.1214,1.554-4.6158,1.4122-7.0828,1.1581-1.735-.5845-3.4705-.5411-5.2063-.0035-4.5817,1.2784-8.7364,1.6693-12.7226-2.2095-2.574-2.5047-6.0285-1.5438-8.4025,1.1864-4.475,5.1464-9.8214,5.8669-16.1102,4.0585-3.5595-1.0235-7.404-.0679-11.1257-1.076-3.9998-1.0834-7.9687-1.7469-11.2445-4.7252-1.3236-1.2035-2.9077-2.9769-5.2727-2.398v-47.4103c4.8669.0593,8.5849,3.4727,13.1218,4.4955,3.838.5643,7.6764.5483,11.5152.0091,3.1925-1.227,6.385-2.454,9.5775-3.6811,2.0655-.6015,4.1344-.5407,6.2056-.0322,6.4215,1.2424,11.6792,5.8515,18.3589,6.3469,4.9808.9641,10.0633-.2959,15.0432.6876.5372.0587,1.0744.1174,1.6116.176,9.1158.5735,18.2314.5848,27.3468-.0083,6.2369-1.0361,11.2599-3.7109,13.1734-10.2305.7185-2.4483,2.6163-3.6449,4.63-3.7519,2.6186-.1391,5.0274-1.1835,7.6158-1.2024,1.4468-.394,2.8937-.3917,4.3407-.0017,3.8994.2694,6.9558-2.1432,10.3915-3.3252,4.1988-1.4445,8.5716-1.9055,12.8974-2.5888,2.4278-.3835,4.5082-1.3835,6.599-2.501,7.2268-.4301,12.5227,3.9706,19.0271,6.0002,6.9386,2.165,13.6166,2.4042,20.1935,6.1126,1.3478.76,2.8802,1.6209,4.3523,1.1445.8561-.2771,1.5298-.9749,2.3914-1.2343,1.0342-.3114,2.1384.0583,3.1495.4382,7.4397,2.7955,14.5916,6.3563,21.3064,10.6079,8.2639,5.2325,21.3607,11.5371,31.3509,11.9429,2.0642.4738,4.1246.7695,6.1591-.1333.9385-1.6228,2.0378-3.1859,1.9301-5.1973,2.6935-2.2931,5.9588-3.7644,8.6697-6.0331,19.5406-5.2397,36.6314-20.5912,53.1751-31.5162,3.7363-2.4674,5.2907-6.8505,9.1205-9.0429,11.7497-4.6875,32.8527-7.8309,45.3454-6.024,15.0296,2.1738,17.0542-1.772,27.2166-11.8461,4.9477-4.9047,11.0406-7.9226,15.2546-13.6869,0,0,.0298.009.03.0086,6.2578-9.8478,11.1208-21.5483,21.9517-27.2305,10.0219-5.2577,21.2896-4.1347,31.5012-7.9566,1.4834-.5552,2.976-1.0839,4.486-1.5628.8142-.4294,1.4447-1.2894,2.5313-1.0795,3.0118-1.6233,6.3824-2.6491,8.7906-5.2779.584-.5778,1.168-1.1557,1.752-1.7335,1.8712-1.0495,3.2721-2.5814,4.4494-4.3462,2.1332-3.0127,3.1967-6.6087,5.2668-9.6568,1.9192-.8769,2.4192-2.8728,3.4863-4.4216.2765-.2978.5531-.5957.8297-.8935,1.9753-1.8755,3.1134-4.4692,5.2922-6.1701,1.4568-1.4579,2.9136-2.9159,4.3703-4.3739,2.3931-1.9975,5.1875-3.5365,7.035-6.1575,2.3322-2.6453,5.3087-3.6776,8.7676-3.502,4.2846-1.0748,8.1001-.1665,11.4681,2.6971,1.6183.9753,2.7617,2.5444,4.3816,3.5258,1.0116.9371,2.3597,1.1683,3.5647,1.6996,1.1508.0675,2.3015.135,3.4544.2031,10.383,3.308,16.3313-10.3784,19.26-17.3356,2.7433-6.5168,10.7018-15.4948,18.5191-10.0688,1.8448.6963,3.3632,2.0354,5.2401,2.6737.919,1.425,2.0549,2.6295,3.5478,3.4685,1.2898,1.6801,2.3489,3.5119,3.4855,5.2976,1.5098,2.3106,2.4868,4.9541,4.3867,7.0273.7141,1.2539,1.9474,2.1487,2.4528,3.547,1.2076,1.2122,2.4151,2.4245,3.6226,3.6367,2.939,3.6998,7.0013,6.3688,9.5597,10.4178.614.9297,1.228,1.8595,1.842,2.7892,1.1302,1.4188,2.7021,2.4806,3.4207,4.2321.6196.9188,1.2392,1.8375,1.8588,2.7563,1.2832,1.1573,2.0763,2.6349,2.7369,4.1899,1.8842,1.987,2.3732,4.672,3.5116,7.0236,1.2531,1.5807,1.3454,3.6892,2.4302,5.3464.2058.6898.0572,1.5642.9796,1.8807,1.2686,1.1697,2.1148,2.6106,2.7072,4.2173,2.0363,3.2056,3.9044,6.5146,5.967,9.704,3.6987,7.0712,5.2857,15.051,10.4618,21.5728,7.1591,9.0195,14.8542,9.3246,25.8499,9.9697,7.2665.4263,14.4732,1.8596,21.3498,4.2462,9.7348,3.3786,18.9136,8.6811,29.1062,10.1945,23.7516,3.5266,38.3495-14.6269,51.7078-31.1606,3.6883-4.5651,8.9656-5.7833,14.261-6.9069,2.6574-.5639,5.3973-.7386,8.0999-1.0892,2.9289-.4699,5.8593-.4266,8.7906-.0243,2.2076,1.7726,5.0448,1.2553,7.4847,1.6015,13.5387,1.9212,18.7521,10.6225,27.8515,19.0687,9.4393,8.7617,21.95,11.9953,35.2518,10.3143,1.9619-3.2822,6.2645-4.5431,10.0514-4.0127,25.9088,3.629,38.6901,34.5081,62.4776,43.0192,8.9455,3.2006,17.9821,6.346,27.634,6.4791,11.8442.1634,23.7591.862,35.5204-.13,13.1355-1.1078,26.7838-1.2503,38.1216-10.0016,2.1948-1.6942,3.0524-4.6085,5.8075-5.5897v21.0713c-2.5758.9166-5.2248.2941-7.8226.2637-13.0903-.1534-24.9265,4.0321-36.1746,10.26-6.2882,3.4816-12.8422,6.3498-19.5878,8.7736-7.5777,2.7227-14.9542,5.8886-22.2111,9.3706-7.1859,3.448-14.5151,3.9795-22.0574.9329-7.2085-2.9118-14.9463-4.0154-22.3805-6.1783-2.2492-.6544-4.52-1.1829-6.6356-2.2081-1.8999-1.0751-3.8858-.6464-5.8675-.3208-10.41-1.7879-20.7058-4.0449-30.7205-7.4564-3.5138-1.3913-7.0678-1.0684-10.63-.2388-8.9341,3.7246-18.2194,6.2602-27.734,7.8912-6.7131,1.1508-12.4656,4.1524-17.5099,8.5342-4.5314,3.9361-9.3358,7.5345-14.1257,11.1035-6.1084,4.5514-12.8779,7.7362-20.6677,8.991-13.8424,2.2297-27.4368,5.8122-41.2229,8.399-1.7684.1708-3.5476.0392-5.3171.1637-1.6887.1581-3.298.7315-4.9708.988-.2128.0201-.4256.0302-.6387.0479-.4282-.0327-.8342-.1495-1.2206-.3349-3.054-2.2173-6.2501-3.9593-10.111-4.5735-3.516-.5593-6.0856-3.1405-8.7833-5.2841-1.3483-1.0713-2.409-2.4879-3.9336-3.3589-4.0581-2.5196-7.9026-5.1717-10.3797-9.5325-1.5168-2.6703-3.8537-4.7539-7.4403-4.1075-7.4741,5.0734-16.1746,5.4607-24.7033,6.517-3.1668.3922-5.7714-.9408-8.0574-2.8199-11.4162-9.3839-24.7805-13.4091-39.2429-14.5204-5.2877-.4063-9.4496-3.2992-12.7952-6.9479-2.9305-3.196-5.9954-6.0582-9.8529-7.8656-9.272-4.3443-15.504-12.331-22.925-18.8678-5.4457-4.7969-11.2699-8.1536-18.6831-8.6538-3.9604-.2672-7.5772-1.9217-11.0148-4.0443-4.9159-3.0354-10.367-2.1101-14.3977,2.0106-12.1229,12.3939-26.1588,22.3902-40.3208,32.2444-8.4589,5.8859-18.232,9.1745-27.1641,14.1125-6.5158,3.6021-13.3266,2.4477-20.1385,1.1962-2.1703-.6983-4.3348-.6365-6.497.0586-1.1643.2538-2.3403.3652-3.5294.3667-1.9741-.0293-3.9468-.0033-5.9202.0062-2.2571-.0127-4.5134-.0109-6.7696-.0008-2.2493-.0097-4.5097-.1519-6.6924.6039-4.107.5186-8.2146.5334-12.3216.0241-2.3509-.7951-4.7909-.6493-7.2151-.647-2.1009-.0058-4.2069-.1105-6.2963.2456-1.8783.0078-3.7135-.3396-5.5527-.6718-1.6234-.5308-3.2999-.4528-4.9745-.4326-6.4474.2769-12.9224-.5836-19.3388.5665-2.5702.492-5.1707.3739-7.7637.3925-1.9817-.1524-3.97-.0748-5.9537-.0948-1.6464-.0197-3.2968-.0624-4.8897.4858-3.7385.7502-7.5556.1555-11.3277.799-18.3543,3.1312-35.8185,9.1648-52.9734,16.1729-3.7946,1.5502-7.6069,3.2733-11.5557,3.9805-10.7503,1.9253-18.6326,8.7052-26.816,14.9906-4.8904,3.7562-6.2274,3.9529-11.4299.0683l.0728.08c-1.2572-1.6009-1.7346-3.5795-2.6004-5.37-2.8519-3.4475-4.7716-7.4435-6.7333-11.4171-1.9555-3.9611-5.0909-6.1261-9.5744-6.0509-4.2058.0705-7.2935-3.1475-11.3167-3.75-1.2376-.1853-2.3952-.6268-3.7378-.487-3.3434.348-6.2798-1.4193-6.3105-4.6842-.0578-6.1299-5.0058-8.0413-8.628-11.0365-1.4376-1.1888-3.6664-1.4207-5.535-2.0883-2.0969-.564-4.1909-.6274-6.2809.0356Z"/><path class="e" d="m1032.3363,584.6555c-5.664-.6109-11.1361-2.1549-16.664-3.4274-2.7678-1.2872-5.6913-.4853-8.524-.4977-2.7368-.0119-5.401-.4998-8.1069-.6399-4.2213-.7383-7.2887-3.3828-10.2659-6.1902-1.2376-1.1669-2.5243-2.2817-3.7887-3.4202-1.0547-.8216-2.3259-1.1577-3.5563-1.5848-3.7706-.8696-7.4014-2.3443-11.311-2.6115-4.9577.9306-10.0107-.2862-14.9675.6644-.5747.0639-1.1495.1278-1.7242.1917-1.7535.5447-3.6907.5474-5.2153,1.7677-4.9962,2.4305-10.4018,4.2834-13.4178,9.5086-1.0926.9773-2.2964,1.8336-3.2352,2.9787-1.1169,1.582-3.1227,1.9681-4.4289,3.2952-2.6934,1.9655-5.2605,4.1854-8.8311,4.3831-1.2957.9148-3.1812-.3517-4.3146,1.1734-.3923.2626-.8151.4465-1.2695.569-3.5372.4779-7.0895.1828-10.6339.2367-1.3819-.0381-2.6948-.3533-3.9181-1.0027-2.5216-1.4314-5.3058-2.1265-8.0894-2.821-.3933-.1112-.7682-.2694-1.1318-.4538-1.1927-.7936-2.5107-1.2884-3.9035-1.6088-7.38-3.1777-15.4804-4.1525-22.8128-7.4639-1.1167-.8474-2.2394-1.6888-3.7073-1.8366-.3908-.0701-.7738-.171-1.154-.2799-1.9479-.5549-3.8678-.6833-5.7196.3569-1.7825.8565-3.5735,1.67-5.6319,1.4173-3.3146-.5354-6.6297-.5208-9.9448-.0122-4.9638-.2045-9.2484-2.4295-12.0478-6.172-6.2671-8.3784-14.5648-13.1022-24.4862-15.4629-1.8974-1.0363-3.863-.7755-5.8394-.2881-1.467.3094-2.8308-.0156-4.1413-.6677-1.2038-.6501-2.4194-1.2826-3.6484-1.8905-.3459-.1848-.666-.408-.9721-.6518-1.2607-1.2119-2.5973-2.3303-4.0886-3.26-2.9213-4.0991-7.5505-6.127-11.2566-9.2681-.9546-1.0474-2.2501-1.4419-3.5518-1.8307-.9342-.5108-1.782-1.0783-1.5013-2.3592l.1251-.1956c1.4514-.5654,3.1907.1085,4.5052-1.0477,1.9914-.3746,4.0562.3065,6.0229-.421,8.4461-1.801,16.974-3.2908,25.3157-5.4882,8.7644-2.3086,18.073-2.37,26.4255-6.1552,4.7541-2.1544,9.0097-5.2332,13.2258-8.4034,7.6889-5.7813,14.1458-13.5006,23.9516-16.1038,4.7803-1.269,9.6552-2.1494,14.5014-3.128,6.0262-1.2169,11.7785-3.7907,17.6491-5.7785,3.7966-.2746,7.6001-.8228,11.3616.2882,8.2387,2.0787,16.2066,5.2341,24.7672,6.0553,2.0446.1961,4.0305,1.0076,6.0433,1.5361,1.775-.3813,3.5478-.4353,5.3172.0349,9.808,3.6731,20.4125,4.6614,30.0752,8.7235,6.2076,2.6096,12.5974,2.3566,18.2118-.0705,8.3778-3.6218,16.5881-7.5869,25.2218-10.6562,6.1127-2.1731,12.5492-4.1955,17.8158-7.7882,5.9482-4.0576,12.5212-6.238,19.0129-8.4848,7.8619-2.721,16.2771-3.27,24.6565-2.6091.6634.0524,1.2923.5414,1.9373.8275v122.0377c-2.6482-1.0252-4.0435-4.0057-7.029-4.5047-1.0101-1.6332-2.8933-1.7526-4.3942-2.5348l.0311.0139c-2.5726-1.1952-5.4174.2389-8.0032-.829-4.6393-.4343-8.0921-3.6687-12.2672-5.1984-3.7977-1.2276-7.7049-.2391-11.5462-.5724-1.7096-.1483-3.471.3867-5.1326-.3888Z"/><path class="e" d="m517.7808,537.2132c-1.0187.7998-2.169,1.1756-3.4669,1.0754-1.618,1.0294-3.672-.4269-5.2345.9186-3.8151,1.4682-7.63,2.9365-11.445,4.4047-1.4497.5429-3.0488.7156-4.3055,1.737-2.4091,1.7495-5.286,2.428-7.9941,3.493-1.6461,1.087-3.566,1.6317-5.2465,2.6504-4.197,2.1052-8.5697,3.6477-13.2694,4.143-2.6227-.4696-5.2447-.4959-7.8659.0121-1.7428.0513-3.4856.1026-5.2284.1539-2.7876,1.2157-5.9124-.4896-8.6667,1.0011-1.9978.8533-4.3228-.4623-6.2391.938-2.0247.6417-4.1873-.246-6.1986.5562l-.8582.2225c-2.6639.519-5.3279.5188-7.9918.0001l-.3998-.0654-.4005.0606c-1.5146.6385-3.1055.2045-4.657.3321-2.8711-.2152-5.7825.4666-8.6242-.3892-.2697-.0193-.5353-.0633-.7968-.1319-.951-1.3656-2.0223-2.6037-3.553-3.3554-1.4645-.6388-2.9291-1.2776-4.3936-1.9164-2.2708-.9382-4.7486.2258-7.0214-.6918-.2916-.0637-.5833-.1273-.8749-.191-1.6625-.8946-3.6042.2197-5.2589-.731-5.0668-2.0583-9.7745-5.3993-15.6986-4.3948-2.2765.8562-4.7578.9251-7.0225,1.8268-.3265.8554-1.0914.7362-1.7747.7985-1.9723,1.0022-4.1982-.1647-6.1839.723-2.1134.098-4.2865.6275-6.1819-.8536-1.9378-.4994-3.3982-1.5844-4.2251-3.4461-3.0131-3.6916-7.8208-2.7123-11.584-4.4514-1.3646-.8554-3.0322.1456-4.3954-.7176-.2868-.0597-.5735-.1195-.8602-.1792-1.7329-.428-3.4622-.7682-5.1357.2162-.345.8335-1.1256.7441-1.8116.8551-1.9096.9515-3.1412,2.9106-5.2653,3.5432l-.0844-.0771c-1.9449.9753-4.1206-.118-6.0854.6788-4.6035-.3452-8.6569-2.7394-13.1413-3.5279-.868-1.2121-2.4684-1.4269-3.4264-2.5164-.6131-.6153-1.2262-1.2306-1.8393-1.8459-.9392-2.188-2.359-3.9446-4.5199-5.0359-.5764-.3581-1.1529-.7162-1.7293-1.0743-2.8737-.9417-5.9269.3196-8.7929-.7168-3.2111-.9298-6.4222-1.8596-9.6333-2.7894-1.6814-.8706-3.6296.2218-5.3012-.7207-.2745-.0224-.5438-.0728-.8078-.1513-1.7167-.3654-2.9909-1.4824-4.3034-2.5342-.0376-.3084-.0753-.6168-.1129-.9252.9929.0633,1.9268-.0302,2.8807.6639,2.4646,1.7933,4.1779,1.2055,6.8388-.8063,7.8729-5.9522,15.0344-13.1404,25.3987-15.2534,11.0227-2.2472,20.7964-8.2261,31.5435-11.4007,15.5489-4.5929,30.7121-10.9848,47.4205-10.1718,1.4013-.5156,2.8573-.1757,4.2847-.2743,2.1158-.1664,4.2674.3606,6.3576-.3234l7.8039-.221c6.589-.7461,13.2009-.132,19.7982-.3337,1.6186.1009,3.2615-.2385,4.86.2578,1.694.3834,3.5711-.2379,5.1214.9336,2.0616-.6516,4.1801-.1608,6.2666-.3131,2.3548.1513,4.7357-.3284,7.071.2924,4.352.0035,8.7039.007,13.0559.0104,2.0046-.6245,4.0632-.1593,6.0907-.3029,2.2576.0005,4.5161-.0015,6.7733-.0002,2.1766-.1648,4.3881.3576,6.5409-.3206,1.1302-.0686,2.2604-.1372,3.3907-.2058,2.1128-.5511,4.2254-.5509,6.3382,0,1.9695.3181,3.9396.3108,5.9513.7301,5.6614,1.1803,11.0955-.41,16.121-3.1226,4.4517-2.4028,8.9041-4.6678,13.6638-6.5186,4.5884-1.7842,8.7039-4.9052,12.8326-7.7239,6.6368-4.5311,12.8036-9.7398,19.2818-14.4396,5.57-4.0409,10.3987-8.882,15.9367-12.8876.8106-.5863,1.5112-1.3916,2.0942-2.2149,4.4843-6.3332,11.0518-7.1977,17.6841-2.7124,2.7833,1.8823,6.168,3.1293,9.5541,3.2274,7.7928.2258,13.6133,3.8644,19.2272,8.9776,8.4234,7.6721,16.1986,16.3016,26.9529,21.022,3.5126,1.5418,4.8371,5.2604,7.5998,7.5331,4.9648,4.0841,10.9885,4.9191,17.0975,5.5859,12.2179,1.3336,23.1487,5.8213,32.7336,13.5652,2.8539,2.3057,5.6623,3.5113,9.8211,2.5425,3.8117-.888,7.961-1.0351,11.963-1.4951,4.0856-.4697,6.9863-3.5675,10.7159-4.8259-2.0461,3.2562-4.7037,5.6306-8.7192,6.0467-1.3716.9303-3.1259-.217-4.477.8246l.0409-.0151c-2.2723,1.1489-4.819-.1871-7.1107.7855-.2495.0434-.5.0802-.7515.1102-1.4113.9789-3.1605-.0642-4.5962.7681-4.7307.389-9.2173,1.8333-13.4408,3.8196-3.5211,1.656-7.1245,2.7033-10.9102,3.3204-1.3504,1.0214-3.1429-.2034-4.4807.8821l.0296-.016c-2.2626,1.1082-4.7791-.1645-7.0621.753l-5.1911.1461c-2.5799,1.0889-5.3818-.2065-7.9747.7428-.8271.4152-1.4913,1.2265-2.5604,1.0534-1.5035.5545-3.0147,1.087-4.5414,1.5745-2.1142,1.2623-4.5015,1.5211-6.8647,1.868-1.362,1.0034-3.0759-.0527-4.4699.7637-3.7998,1.5719-4.9534,6.2065-8.8566,7.6523-.5155.191-1.062.2981-1.5942.4439-4.1419.5509-8.2823.6707-12.4195-.0463-2.5906-.3341-5.1813-.6681-7.7719-1.0022-1.7137-.8876-3.6978.2213-5.4027-.7318-1.4237-.4337-3.1232.6675-4.3639-.7845-1.562-1.4239-3.6867.1403-5.3024-.9986-.2586-.0241-.5133-.0699-.7641-.1376-1.4103-.8071-3.1131.193-4.5047-.7294-.2513-.0349-.5017-.0757-.7511-.1224-1.4071-.8593-3.1323.1794-4.5262-.7586-.8871-.1618-1.9558.3079-2.587-.7439-3.1924-1.1322-6.4286-.6703-9.6632-.2661-5.522,2.6892-9.0816,8.2008-15.0522,10.3014-7.303,2.5693-13.7246,7.5145-21.7743,8.089-2.916-.465-5.8309-.5074-8.7444.0225Z"/><path class="d" d="m1080.5953,1543.5711v-494.2966h0v-467.9575c-1.5117-2.512-3.6002-4.3416-6.3645-5.3671-1.7338-.5626-3.3065-1.4774-4.9473-2.2357-.3884-.1467-.7869-.2658-1.1968-.336-2.2848-.393-4.6831.146-6.9026-.8044-4.6128-1.2056-8.4644-4.2555-13.0962-5.4078-5.1449-.749-10.3914.472-15.5187-.7522-5.7339-1.2147-11.4438-2.5382-17.2139-3.5717-5.0252-.8542-10.1813.4611-15.1822-.8996-3.3922-.4747-6.1199-2.2941-8.7427-4.3115-2.1439-1.6491-3.6838-4.0182-6.2112-5.2081-1.4421-.5193-2.8036-1.2109-4.1536-1.9196-3.7422-1.3059-7.4633-2.7134-11.5414-2.3834-4.5776.8021-9.2012.1718-13.8002.4375-.7075.0355-1.4004.1449-2.0825.338-1.8835.6003-3.7324,1.294-5.6272,1.8503-5.4064,1.974-10.5411,4.3459-13.9264,9.3335-.5377,1.2791-1.4092,2.3036-2.4076,3.2351-1.4438,1.6243-3.2875,2.6495-5.2407,3.5062-2.897,1.6852-5.6763,3.6304-9.0584,4.2751-.7365.6657-2.6771.2939-2.6234,1.6387-.0295-.0078-.0591-.0133-.0886-.0212-.2188-.4653-.5079-.5178-.8649-.1715-4.1094.7966-8.2232.6442-12.3392.0568-1.303.0972-2.4664-.2722-3.5074-1.0501-2.9899-.6158-5.8434-1.7055-8.7747-2.5248l.0245.047c-.8956-1.0212-2.3699-1.002-3.3532-1.8655-4.4938-1.4927-8.6904-3.7215-13.4895-4.5131-3.5403-.584-6.8994-2.268-10.3392-3.4619-1.1252-.6845-2.3734-1.0804-3.5971-1.5338-.2841-.0521-.5616-.1281-.8326-.2281-2.0372-.4421-4.0737-.4585-6.1094.0098-1.6527.9206-3.3436,1.7242-5.2953,1.7297-3.5078-.4274-7.0151-.4474-10.522.0107-5.8497-.9927-10.3497-4.3627-13.6788-8.9219-3.6321-4.9742-8.233-8.2307-13.8942-10.2246-2.7988-.9858-5.6351-1.8654-8.4544-2.793-2.0347-.4538-4.0694-.4538-6.1041,0-1.6572.7087-2.8841-.8236-4.4011-.8451-1.2516-.4017-2.5383-.7283-3.5444-1.6558l.0325.0341c-1.5883-.9982-2.808-2.4418-4.2979-3.5591-2.4498-4.8802-7.6297-6.546-11.4927-9.7624-1.1101-.7141-2.3692-1.084-3.5859-1.5518-.5987-.5983-1.1974-1.1967-1.7961-1.795-.2805-.0434-.5564-.1066-.8278-.1896-2.8525-1.3932-5.6271-3.0065-8.7527-3.7134-6.1092-1.3817-10.5875-4.9792-14.0359-10.0464-3.8799-2.5434-7.7678-4.8319-10.0425-9.3859-1.4634-2.9296-4.272-5.4975-8.3882-4.6547-2.6364,2.2654-5.2251,4.6094-8.7942,5.3403-1.2904.5465-2.6494.7302-4.034.7678-.3969.0682-.7885.1629-1.1698.2946-2.0049.6282-4.0793.4519-6.1315.5197-.4211.0241-.8394.0816-1.2492.184-1.4526.4316-2.9264.7316-4.4527.6572-2.8354-.1868-5.5035.6193-8.134,1.496-5.2556,1.7515-10.2242,4.3276-15.6893,5.4916-1.407.61-2.9194.7134-4.4035.9518-.4246.0839-.8452.1835-1.2565.3223-2.1725.4448-4.3661.2206-6.5523.2022-1.6112.0005-3.222.0226-4.8095.3627-2.4366.8547-5.0035.3304-7.4841.7278-1.1033.2042-2.1332.6126-3.1361,1.1043-1.4745.834-3.0363,1.4142-4.7106,1.6744-2.2636.5472-4.5129,1.1492-6.7422,1.8254-1.4048.5537-2.9295.4659-4.369.8329-2.1667.7111-3.9236,2.0755-5.2023,3.8719-1.5366,2.1589-3.5541,3.4106-6.0114,4.1207-3.8553.6074-7.7101.7551-11.5494-.1627-2.5343-.5733-5.053-1.2455-7.6869-1.199-1.7983.027-3.6031.1468-5.3517-.4277-1.4915-.3138-3.0124-.4712-4.4886-.8601-1.6431-.42-3.3813-.2629-5.0029-.8116-.4066-.1063-.8159-.1962-1.2347-.2462-1.4258-.1709-2.8782-.1685-4.2512-.6594-.401-.1063-.8063-.1963-1.2195-.2455-1.4514-.1609-2.9282-.1871-4.3042-.7595-1.0627-.3397-2.112-.7314-3.2027-.9789-2.8111-.4151-5.6286-.3253-8.4485-.0818-2.8261.5964-4.7962,2.5366-6.9969,4.2114-9.2373,7.0299-19.5602,11.7445-30.9691,14.0193-2.5677.0829-5.144-.0969-7.7094.1937-1.3555.2426-2.6559.6852-3.9719,1.0753-1.6548.6842-3.4681.491-5.1608.9628-3.7944,1.5117-7.8032,2.4446-11.4615,4.3149-1.4381.8449-2.9847,1.431-4.5576,1.9555-2.6269,1.2282-5.434,2.0449-7.9506,3.5197-1.6805,1.265-3.5394,2.1505-5.5833,2.6375-4.3696,1.5315-8.6435,3.4164-13.3468,3.7635-2.3901.0283-4.7845.0654-7.1769-.0298-1.7161.0055-3.4305.037-5.1219.3863-2.5032,1.0396-5.3419.0162-7.8047,1.2888-.0428.0308-.07.0671-.1074.0999-1.9333.0261-3.8667-.0318-5.7867.2836-2.2982.8364-4.7087.5801-7.0742.782-.4576.0569-.9062.1364-1.3505.2664-2.5424.778-5.1066.6387-7.6789.2276-.4326-.0419-.8651-.0485-1.2983.0015-1.4753.3022-2.9673.3062-4.4622.2834-2.5097-.0938-5.0367.2667-7.5371-.2584-.3839-.1342-.7609-.2826-1.1481-.4141-1.7394-.7255-2.8033-2.2761-4.2-3.4169-1.3987-1.0831-2.9622-1.7732-4.7327-1.9613-2.1462-.2113-4.3439.166-6.447-.544-.423-.1068-.8499-.1972-1.2851-.2455-1.6984-.2434-3.5027.0402-5.0466-.9821-4.9656-2.3104-9.7136-5.4424-15.6388-4.1157-2.2916.8106-4.6356,1.4059-7.028,1.814-.8254.2666-1.6311.5842-2.4423.8903-1.8585.6836-3.7892.4004-5.6984.4396-1.8951.0562-3.7758-.0402-5.621-.5317-2.3035-.1566-3.6251-1.5291-4.4147-3.554-3.0197-3.715-7.6622-3.2829-11.6425-4.5373-1.5121-.1562-3.0551-.079-4.5153-.6031-.4236-.1047-.8503-.1949-1.2855-.2409-1.5147-.1556-3.0211-.1616-4.5126.2056-.7975.2333-1.5345.5913-2.2385,1.0269-1.7031,1.1472-2.9252,3.0285-5.1483,3.3745-.3687.0985-.7383.1991-1.1001.3245-1.7578.3603-3.5197.2883-5.2823.0308-4.1165-.614-7.9402-2.3046-11.9684-3.2681-1.5325-.2507-2.857-.8591-3.7823-2.1622-.5818-.7647-1.249-1.4518-1.9658-2.0908-1.6555-1.7319-3.0781-3.6874-4.9672-5.1913-.7147-.5128-1.4989-.8744-2.3693-1.0348-2.6382-.4683-5.3842.2322-7.9815-.7115-3.1983-.9005-6.3376-2.0092-9.6024-2.6779-1.6322-.3237-3.3286-.1058-4.943-.591-.3855-.1014-.7685-.196-1.1641-.2611-1.5153-.2111-2.8693-.6921-3.6601-2.1331-.1997-.3185-.4044-.6373-.6304-.9393-.1183-.1496-.2285-.3076-.3474-.4575-1.6062-1.4166-1.6175-3.4871-2.191-5.3235-2.1202-3.6546-4.3525-7.2463-6.2045-11.0606-1.1705-2.4107-2.8303-4.9869-5.4238-5.4189-6.9186-1.1524-13.0648-5.0518-20.1376-5.4177-2.7425-.1419-4.4543-1.4793-5.05-4.0059-1.9933-8.4545-8.3932-11.7407-15.8821-13.8112-1.8328-.1193-3.6706-.0372-5.5064-.0936-3.4258.3058-6.243-.7216-8.4783-3.4755-3.192-3.9326-7.5248-5.2238-12.4418-4.9145-1.6353.514-3.2655.7242-4.8871-.032-3.5206-1.6729-6.8851-2.7645-10.7964-.5291-7.0855,4.0496-14.1097,8.3291-22.2304,10.1638-1.7988.4063-3.171,1.5841-4.2064,3.0081-4.8079,6.6125-10.359,12.6824-14.4359,19.8302-2.2417,3.9304-5.5288,6.3487-10.1613,6.6837-1.8314.0574-3.6669-.0023-5.4993.0794-.699.0563-1.3904.1614-2.0713.3368-2.0415.6609-4.1387.4769-6.2268.4292-5.62-.4521-10.8469.665-15.6182,3.7792-2.1383,1.3958-4.5926,1.546-7.0668,1.4758-1.674.076-3.3489.0408-5.0242.0673-3.562.3576-7.038,1.5894-10.567-.8021-5.5831-3.7834-7.4972-3.5198-12.7049,1.0857-2.6606,2.353-5.7027,3.9092-9.145,3.4222-4.7704-.6749-9.5781-.8939-14.3373-1.5771-4.8312-.6936-9.3677-2.0767-13.2415-5.2855-1.4045-1.1633-3.0901-2.4316-5.1213-.9412v1036.0034c0,163.7412.0115,327.4823-.0823,491.2235-.0019,3.292.7413,4.0347,4.0329,4.033,178.6557-.0927,357.3114-.0822,535.9671-.0822s357.3114-.0105,535.967.0824c3.2915.0017,4.0349-.7412,4.033-4.0332-.0938-163.7412-.0823-327.4823-.0823-491.2235Z"/><g class="f"><line class="g" x1=".6776" y1="0" x2=".6776" y2="2038.7454"/><line class="g" x1="120.6776" y1="0" x2="120.6776" y2="2038.7454"/><line class="g" x1="240.6776" y1="0" x2="240.6776" y2="2038.7454"/><line class="g" x1="360.6776" y1="0" x2="360.6776" y2="2038.7454"/><line class="g" x1="480.6776" x2="480.6776" y2="2038.7454"/><line class="g" x1="600.6776" y1="0" x2="600.6776" y2="2038.7454"/><line class="g" x1="720.6776" y1="0" x2="720.6776" y2="2038.7454"/><line class="g" x1="840.6776" y1="0" x2="840.6776" y2="2038.7454"/><line class="g" x1="960.6776" y1="0" x2="960.6776" y2="2038.7454"/><line class="g" x1="1080.6776" y1="0" x2="1080.6776" y2="2038.7454"/></g></svg>