<?xml version="1.0" encoding="UTF-8"?><svg id="a" xmlns="http://www.w3.org/2000/svg" width="50" height="50" viewBox="0 0 100 100"><defs><style>.b{fill:#fff;}</style></defs><path class="b" d="m2023.5649,1172.2823c-.001-4.5582-.3538-9.1707-1.097-13.666-6.696-40.5006-41.3813-69.0448-81.5109-69.0365-223.6517.0463-447.3036.0158-670.9553.0673-4.5542.001-9.1632.3437-13.6537,1.0883-40.5153,6.7177-68.9986,41.5286-68.9748,81.6021.0664,111.9393.0231,223.8786.0231,335.8179.0001,112.0778-.0123,224.1555.0459,336.2333.0023,4.4192.3671,8.8894,1.0865,13.2492,6.7343,40.811,41.7836,69.0528,81.5217,69.0457,223.6518-.0403,447.3036-.0131,670.9553-.0649,4.5535-.001,9.162-.3469,13.6518-1.0931,40.7448-6.7713,68.9744-41.6906,68.9686-81.6075-.0323-223.8786-.009-447.7573-.0611-671.6359Zm-351.6074,381.5023h-104.7133v298.4625h-82.3309v-298.5483h-104.4491v-66.2134h291.4933v66.2992Zm275.2131,236.8643c-11.3824,27.5685-32.5657,44.6559-59.8771,54.8134-18.3726,6.833-37.5496,9.7886-57.027,11.1678-27.7488,1.9651-55.2606.3358-82.5297-5.1797-13.3499-2.7002-26.2908-6.6818-38.704-12.3748-2.7218-1.2482-3.9083-2.6661-3.8882-5.8657.1528-24.36.0837-48.7216.0838-73.0826v-3.5103c6.8741,4.7321,13.1097,9.5356,19.8151,13.5535,31.6849,18.9861,65.8108,26.6728,102.5463,21.2067,9.3839-1.3962,18.3113-4.3289,26.2657-9.8215,16.4734-11.3751,19.223-32.1471,6.2659-47.5134-8.234-9.7651-18.7267-16.5865-29.996-22.001-14.9794-7.197-30.3683-13.5389-45.5685-20.277-18.7287-8.3022-36.283-18.4031-51.2454-32.6849-19.3215-18.4427-28.6149-41.1152-29.4513-67.6123-.8348-26.446,5.662-50.3911,23.6786-70.4031,14.8316-16.4741,33.6198-26.616,54.5547-32.9473,27.3837-8.2817,55.4076-10.2079,83.8979-8.661,20.5491,1.1157,40.7596,3.6236,60.5214,9.4546,11.9361,3.5219,11.9495,3.4768,11.9495,15.9135,0,21.0047,0,42.0095,0,63.877-13.0969-8.827-26.6504-14.7422-40.9994-18.7197-19.5005-5.4056-39.3593-8.1733-59.5916-5.8412-13.0223,1.501-25.5961,4.6467-36.1772,13.1777-13.681,11.0301-15.6595,29.1133-4.5905,42.8605,7.7741,9.6551,18.0371,16.0916,28.9266,21.3534,16.9335,8.1823,34.2375,15.5922,51.2802,23.5533,16.7804,7.8387,32.7131,17.0537,46.4653,29.702,19.9041,18.3065,29.7145,41.1252,30.5777,67.9747.527,16.3933-.8607,32.575-7.1829,47.8875Z"/></svg>