<?xml version="1.0" encoding="UTF-8"?>
<svg id="XD" xmlns="http://www.w3.org/2000/svg" viewBox="0 0 2128.47 2128.47">
  <path d="m1351.77,1669.78c0-107.88,0-215.76,0-323.65.31-1.47.68-2.94.92-4.42.28-1.74.35-3.51.68-5.23,6.29-32.47,24.61-55.3,55.09-68.21,10.97-4.64,22.54-6.29,34.46-6.28,107.68.07,215.36.04,323.04.04,1.52,0,3.05-.07,4.56.05,4.06.32,8.18.4,12.17,1.16,29.9,5.74,51.77,22.24,65.34,49.49,4.86,9.75,7.75,20.12,8.23,31.08.03.78.28,1.54.43,2.32v323.17c-.13.45-.34.9-.37,1.35-.12,1.67-.06,3.37-.28,5.03-2.03,15.37-7.49,29.42-16.87,41.78-15.46,20.39-35.93,32.26-61.39,35.46-1.73.22-3.45.59-5.17.89h-336.3c-.77-.17-1.53-.41-2.31-.49-9.67-1.03-19.03-3.22-27.98-7.08-29.62-12.78-50.35-40.95-53.39-73.04-.11-1.16-.57-2.28-.86-3.42Zm383.57-231.25c-3.28-.22-6.07-.51-8.86-.58-9.47-.23-18.87.51-28.16,2.37-17.53,3.5-32.99,11.08-45.86,23.61-13.82,13.45-22.3,29.74-25.2,48.79-2.06,13.51-1.26,26.99,1.85,40.27,4.6,19.6,15.33,35.08,32.38,45.82,14.34,9.04,30.34,13.03,47.16,13.74,10.82.46,21.59-.26,32.31-1.83,13.44-1.97,26.48-5.34,39.04-10.54,2.97-1.23,3.29-1.73,3.2-4.84-.02-.56-.04-1.12-.06-1.68-.35-8.47-.99-16.94-1-25.41-.08-64.57-.05-129.14-.05-193.71,0-.88.04-1.76-.03-2.64-.12-1.45-.67-1.99-2.08-2.12-.56-.05-1.12-.02-1.68-.02-12.89,0-25.78,0-38.67,0-4.08,0-4.29.21-4.29,4.36,0,20.32,0,40.65,0,60.97,0,1.02,0,2.03,0,3.43Zm-210.2,32.57c-.66-1.22-1.07-1.97-1.48-2.73-5.37-9.92-10.72-19.85-16.11-29.75-6.01-11.03-12.12-22-18.05-33.07-2.41-4.51-4.55-9.17-6.65-13.84-1.09-2.43-2.81-3.57-5.38-3.64-.56-.01-1.12-.02-1.68-.02-14.89,0-29.78,0-44.68,0-.64,0-1.29-.04-1.92.06-1.76.28-2.14,1.08-1.32,2.65.26.5.57.97.85,1.45,20.48,34.64,40.96,69.29,61.44,103.93.49.82.95,1.66,1.46,2.57-.5.86-.97,1.69-1.46,2.51-17.04,27.94-34.09,55.87-51.14,83.8-4.08,6.69-8.17,13.38-12.25,20.08-.66,1.08-1.41,2.15-.52,3.63.64,0,1.27,0,1.9,0,14.97,0,29.94,0,44.92,0,.48,0,.96,0,1.44-.03,1.73-.08,2.96-.81,3.82-2.42,5.05-9.36,10.27-18.64,15.26-28.04,8.94-16.81,17.77-33.68,26.65-50.52.31-.58.71-1.11,1.21-1.89.56.86.94,1.36,1.25,1.91,7.74,14,15.59,27.95,23.17,42.04,6.17,11.48,12.05,23.13,17.95,34.76,1.25,2.46,3.05,3.58,5.66,3.69.56.02,1.12.03,1.68.03,16.09,0,32.19,0,48.28,0,.78,0,1.56-.07,2.47-.12.45-1.82-.55-3.03-1.31-4.29-21.49-35.25-43-70.49-64.5-105.74-.58-.95-1.14-1.91-1.76-2.95.6-1.02,1.15-1.98,1.72-2.93,20.33-33.52,40.66-67.05,60.99-100.57.21-.34.48-.65.64-1.02.51-1.17.03-2.04-1.27-2.23-.63-.09-1.28-.05-1.92-.05-4.96,0-9.93,0-14.89,0-9.45,0-18.89,0-28.34-.04-1.56,0-2.73.33-3.52,1.87-3.85,7.46-7.72,14.92-11.72,22.3-10.13,18.72-20.41,37.35-29.65,56.53-.27.55-.63,1.06-1.24,2.08Z" style="fill: #fff;"/>
  <path d="m1735.14,1570.98c-1.4.3-2.78.8-4.18.87-4.79.25-9.59.55-14.38.44-7.19-.15-14.13-1.68-20.62-4.86-8.68-4.26-14.49-11.22-17.96-20.1-4.99-12.79-5.46-25.93-1.87-39.08,3.07-11.26,10.64-19.15,20.56-24.85,9.59-5.51,19.98-7.47,30.97-6.37,1.83.18,3.65.44,5.46.71.63.09,1.23.33,1.82.5.49,1.81.7,87.73.19,92.74Z" style="fill: #fff;"/>
</svg>